<?xml version="1.0" encoding="UTF-8" standalone="no"?>
<!DOCTYPE svg PUBLIC "-//W3C//DTD SVG 1.1//EN"
 "http://www.w3.org/Graphics/SVG/1.1/DTD/svg11.dtd">
<!-- Generated by graphviz version 2.40.1 (20161225.0304)
 -->
<!-- Title: finite_state_machine Pages: 1 -->
<svg width="576pt" height="339pt"
 viewBox="0.00 0.00 576.00 339.04" xmlns="http://www.w3.org/2000/svg" xmlns:xlink="http://www.w3.org/1999/xlink">
<g id="graph0" class="graph" transform="scale(.9543 .9543) rotate(0) translate(4 351.2662)">
<title>finite_state_machine</title>
<polygon fill="#ffffff" stroke="transparent" points="-4,4 -4,-351.2662 599.5675,-351.2662 599.5675,4 -4,4"/>
<!-- LR_3 -->
<g id="node1" class="node">
<title>LR_3</title>
<ellipse fill="none" stroke="#000000" cx="30.5473" cy="-127.2662" rx="30.5947" ry="30.5947"/>
<text text-anchor="middle" x="30.5473" y="-123.5662" font-family="Times,serif" font-size="14.00" fill="#000000">LR_3</text>
</g>
<!-- LR_4 -->
<g id="node2" class="node">
<title>LR_4</title>
<ellipse fill="none" stroke="#000000" cx="134.6419" cy="-159.2662" rx="30.5947" ry="30.5947"/>
<text text-anchor="middle" x="134.6419" y="-155.5662" font-family="Times,serif" font-size="14.00" fill="#000000">LR_4</text>
</g>
<!-- LR_3&#45;&gt;LR_4 -->
<g id="edge1" class="edge">
<title>LR_3&#45;&gt;LR_4</title>
<path fill="none" stroke="#000000" d="M59.8204,-136.2651C70.9076,-139.6735 83.7123,-143.6098 95.5598,-147.2518"/>
<polygon fill="#000000" stroke="#000000" points="94.6407,-150.6309 105.2278,-150.2239 96.6977,-143.9399 94.6407,-150.6309"/>
<text text-anchor="middle" x="82.5946" y="-147.0662" font-family="Times,serif" font-size="14.00" fill="#000000">5</text>
</g>
<!-- LR_2 -->
<g id="node3" class="node">
<title>LR_2</title>
<ellipse fill="none" stroke="#000000" cx="245.7364" cy="-138.2662" rx="30.5947" ry="30.5947"/>
<text text-anchor="middle" x="245.7364" y="-134.5662" font-family="Times,serif" font-size="14.00" fill="#000000">LR_2</text>
</g>
<!-- LR_3&#45;&gt;LR_2 -->
<g id="edge2" class="edge">
<title>LR_3&#45;&gt;LR_2</title>
<path fill="none" stroke="#000000" d="M59.0626,-116.134C72.4994,-111.466 88.8857,-106.5888 104.0946,-104.2662 130.9365,-100.167 138.5757,-98.8794 165.1892,-104.2662 180.1533,-107.2951 195.7932,-113.1927 209.2677,-119.2372"/>
<polygon fill="#000000" stroke="#000000" points="208.1145,-122.5616 218.6558,-123.6255 211.0787,-116.2202 208.1145,-122.5616"/>
<text text-anchor="middle" x="134.6419" y="-108.0662" font-family="Times,serif" font-size="14.00" fill="#000000">2</text>
</g>
<!-- LR_0 -->
<g id="node4" class="node">
<title>LR_0</title>
<ellipse fill="none" stroke="#000000" cx="349.831" cy="-143.2662" rx="30.5947" ry="30.5947"/>
<text text-anchor="middle" x="349.831" y="-139.5662" font-family="Times,serif" font-size="14.00" fill="#000000">LR_0</text>
</g>
<!-- LR_3&#45;&gt;LR_0 -->
<g id="edge3" class="edge">
<title>LR_3&#45;&gt;LR_0</title>
<path fill="none" stroke="#000000" d="M37.4837,-97.4124C44.297,-74.7932 56.977,-44.7223 79.0946,-27.2662 121.069,5.8619 144.0323,1.5364 197.1892,-4.2662 244.2895,-9.4076 267.2685,5.7162 301.2837,-27.2662 324.6549,-49.9277 305.9403,-68.5727 319.2837,-98.2662 321.1185,-102.3492 323.3213,-106.4632 325.6929,-110.4566"/>
<polygon fill="#000000" stroke="#000000" points="322.7659,-112.3765 331.0769,-118.9475 328.6777,-108.6279 322.7659,-112.3765"/>
<text text-anchor="middle" x="190.1892" y="-8.0662" font-family="Times,serif" font-size="14.00" fill="#000000">10</text>
</g>
<!-- LR_1 -->
<g id="node5" class="node">
<title>LR_1</title>
<ellipse fill="none" stroke="#000000" cx="453.9256" cy="-202.2662" rx="30.5947" ry="30.5947"/>
<text text-anchor="middle" x="453.9256" y="-198.5662" font-family="Times,serif" font-size="14.00" fill="#000000">LR_1</text>
</g>
<!-- LR_3&#45;&gt;LR_1 -->
<g id="edge4" class="edge">
<title>LR_3&#45;&gt;LR_1</title>
<path fill="none" stroke="#000000" d="M32.3203,-157.9567C37.4569,-215.1449 57.405,-332.2662 134.6419,-332.2662 134.6419,-332.2662 134.6419,-332.2662 349.831,-332.2662 397.0093,-332.2662 426.3358,-279.4516 441.4006,-241.1494"/>
<polygon fill="#000000" stroke="#000000" points="444.6856,-242.3573 444.9256,-231.7652 438.1326,-239.8958 444.6856,-242.3573"/>
<text text-anchor="middle" x="245.7364" y="-336.0662" font-family="Times,serif" font-size="14.00" fill="#000000">1</text>
</g>
<!-- LR_4&#45;&gt;LR_2 -->
<g id="edge14" class="edge">
<title>LR_4&#45;&gt;LR_2</title>
<path fill="none" stroke="#000000" d="M164.7057,-153.5833C177.3026,-151.2021 192.132,-148.3989 205.6377,-145.846"/>
<polygon fill="#000000" stroke="#000000" points="206.4727,-149.2502 215.6486,-143.9536 205.1725,-142.372 206.4727,-149.2502"/>
<text text-anchor="middle" x="190.1892" y="-153.0662" font-family="Times,serif" font-size="14.00" fill="#000000">8</text>
</g>
<!-- LR_5 -->
<g id="node6" class="node">
<title>LR_5</title>
<ellipse fill="none" stroke="#000000" cx="565.0202" cy="-202.2662" rx="30.5947" ry="30.5947"/>
<text text-anchor="middle" x="565.0202" y="-198.5662" font-family="Times,serif" font-size="14.00" fill="#000000">LR_5</text>
</g>
<!-- LR_4&#45;&gt;LR_5 -->
<g id="edge15" class="edge">
<title>LR_4&#45;&gt;LR_5</title>
<path fill="none" stroke="#000000" d="M156.8978,-138.2792C172.1943,-124.9503 193.576,-108.3657 215.1892,-98.2662 249.3146,-82.3197 260.1163,-79.2662 297.7837,-79.2662 297.7837,-79.2662 297.7837,-79.2662 453.9256,-79.2662 500.4152,-79.2662 532.4733,-128.256 549.7991,-164.4004"/>
<polygon fill="#000000" stroke="#000000" points="546.7344,-166.1136 554.0907,-173.7383 553.0949,-163.1904 546.7344,-166.1136"/>
<text text-anchor="middle" x="349.831" y="-83.0662" font-family="Times,serif" font-size="14.00" fill="#000000">6</text>
</g>
<!-- LR_2&#45;&gt;LR_4 -->
<g id="edge13" class="edge">
<title>LR_2&#45;&gt;LR_4</title>
<path fill="none" stroke="#000000" d="M216.121,-129.7307C205.5946,-127.9379 193.7421,-127.3542 183.1892,-130.2662 178.1718,-131.6506 173.1505,-133.7054 168.3421,-136.0935"/>
<polygon fill="#000000" stroke="#000000" points="166.487,-133.1193 159.4146,-141.008 169.8628,-139.2516 166.487,-133.1193"/>
<text text-anchor="middle" x="190.1892" y="-134.0662" font-family="Times,serif" font-size="14.00" fill="#000000">4</text>
</g>
<!-- LR_2&#45;&gt;LR_0 -->
<g id="edge12" class="edge">
<title>LR_2&#45;&gt;LR_0</title>
<path fill="none" stroke="#000000" d="M276.4052,-139.7393C286.5854,-140.2283 298.0862,-140.7807 308.913,-141.3007"/>
<polygon fill="#000000" stroke="#000000" points="308.8653,-144.8024 319.0217,-141.7863 309.2012,-137.8105 308.8653,-144.8024"/>
<text text-anchor="middle" x="297.7837" y="-144.0662" font-family="Times,serif" font-size="14.00" fill="#000000">8</text>
</g>
<!-- LR_0&#45;&gt;LR_3 -->
<g id="edge10" class="edge">
<title>LR_0&#45;&gt;LR_3</title>
<path fill="none" stroke="#000000" d="M325.7826,-124.3984C312.0811,-114.7574 294.1279,-103.8966 276.2837,-98.2662 203.2972,-75.2365 179.4678,-82.9892 104.0946,-96.2662 91.5143,-98.4822 78.4571,-103.1222 66.8978,-108.153"/>
<polygon fill="#000000" stroke="#000000" points="65.2133,-105.075 57.5837,-112.4262 68.1323,-111.4374 65.2133,-105.075"/>
<text text-anchor="middle" x="190.1892" y="-87.0662" font-family="Times,serif" font-size="14.00" fill="#000000">0</text>
</g>
<!-- LR_0&#45;&gt;LR_2 -->
<g id="edge11" class="edge">
<title>LR_0&#45;&gt;LR_2</title>
<path fill="none" stroke="#000000" d="M324.0835,-126.4741C316.9781,-122.692 309.0735,-119.2208 301.2837,-117.2662 294.5651,-115.5803 287.547,-116.2259 280.8494,-118.0952"/>
<polygon fill="#000000" stroke="#000000" points="279.5232,-114.8535 271.3381,-121.5806 281.9318,-121.4261 279.5232,-114.8535"/>
<text text-anchor="middle" x="297.7837" y="-121.0662" font-family="Times,serif" font-size="14.00" fill="#000000">0</text>
</g>
<!-- LR_0&#45;&gt;LR_1 -->
<g id="edge9" class="edge">
<title>LR_0&#45;&gt;LR_1</title>
<path fill="none" stroke="#000000" d="M377.083,-157.6812C386.1326,-162.5485 396.2308,-168.067 405.3783,-173.2662 409.7993,-175.7789 414.4188,-178.4621 418.9753,-181.1438"/>
<polygon fill="#000000" stroke="#000000" points="417.2051,-184.1631 427.5916,-186.2539 420.7759,-178.1424 417.2051,-184.1631"/>
<text text-anchor="middle" x="401.8783" y="-177.0662" font-family="Times,serif" font-size="14.00" fill="#000000">0</text>
</g>
<!-- LR_1&#45;&gt;LR_3 -->
<g id="edge7" class="edge">
<title>LR_1&#45;&gt;LR_3</title>
<path fill="none" stroke="#000000" d="M424.224,-209.4795C361.8152,-223.0787 213.7804,-247.073 104.0946,-199.2662 84.8835,-190.893 67.8384,-175.0802 55.0068,-160.4019"/>
<polygon fill="#000000" stroke="#000000" points="57.427,-157.8403 48.3246,-152.4184 52.0592,-162.3332 57.427,-157.8403"/>
<text text-anchor="middle" x="245.7364" y="-231.0662" font-family="Times,serif" font-size="14.00" fill="#000000">10</text>
</g>
<!-- LR_1&#45;&gt;LR_4 -->
<g id="edge5" class="edge">
<title>LR_1&#45;&gt;LR_4</title>
<path fill="none" stroke="#000000" d="M423.2289,-200.4754C377.6144,-197.5224 289.346,-190.6846 215.1892,-178.2662 201.7716,-176.0192 187.2603,-172.8352 174.2999,-169.7146"/>
<polygon fill="#000000" stroke="#000000" points="174.8362,-166.242 164.2889,-167.2446 173.1594,-173.0382 174.8362,-166.242"/>
<text text-anchor="middle" x="297.7837" y="-193.0662" font-family="Times,serif" font-size="14.00" fill="#000000">1</text>
</g>
<!-- LR_1&#45;&gt;LR_0 -->
<g id="edge6" class="edge">
<title>LR_1&#45;&gt;LR_0</title>
<path fill="none" stroke="#000000" d="M441.3626,-174.0004C433.3211,-159.5935 421.3717,-143.4281 405.3783,-135.2662 400.2798,-132.6642 394.5959,-131.6779 388.8639,-131.7026"/>
<polygon fill="#000000" stroke="#000000" points="388.2207,-128.2488 378.6102,-132.7085 388.9042,-135.2154 388.2207,-128.2488"/>
<text text-anchor="middle" x="401.8783" y="-139.0662" font-family="Times,serif" font-size="14.00" fill="#000000">7</text>
</g>
<!-- LR_1&#45;&gt;LR_5 -->
<g id="edge8" class="edge">
<title>LR_1&#45;&gt;LR_5</title>
<path fill="none" stroke="#000000" d="M481.3487,-188.6796C492.1741,-184.8225 504.7948,-182.1709 516.4729,-184.2662 520.0922,-184.9155 523.7944,-185.817 527.4605,-186.8733"/>
<polygon fill="#000000" stroke="#000000" points="526.4074,-190.2112 536.9994,-189.9647 528.5655,-183.5522 526.4074,-190.2112"/>
<text text-anchor="middle" x="509.4729" y="-188.0662" font-family="Times,serif" font-size="14.00" fill="#000000">4</text>
</g>
<!-- LR_5&#45;&gt;LR_4 -->
<g id="edge17" class="edge">
<title>LR_5&#45;&gt;LR_4</title>
<path fill="none" stroke="#000000" d="M547.2927,-227.4689C527.6008,-252.2117 493.339,-286.2662 453.9256,-286.2662 245.7364,-286.2662 245.7364,-286.2662 245.7364,-286.2662 198.1394,-286.2662 166.2087,-235.1067 149.2314,-197.7285"/>
<polygon fill="#000000" stroke="#000000" points="152.2352,-195.8592 145.0378,-188.0844 145.8159,-198.6507 152.2352,-195.8592"/>
<text text-anchor="middle" x="349.831" y="-290.0662" font-family="Times,serif" font-size="14.00" fill="#000000">8</text>
</g>
<!-- LR_5&#45;&gt;LR_1 -->
<g id="edge16" class="edge">
<title>LR_5&#45;&gt;LR_1</title>
<path fill="none" stroke="#000000" d="M534.4691,-202.2662C522.2162,-202.2662 507.913,-202.2662 494.7883,-202.2662"/>
<polygon fill="#000000" stroke="#000000" points="494.5768,-198.7663 484.5768,-202.2662 494.5767,-205.7663 494.5768,-198.7663"/>
<text text-anchor="middle" x="509.4729" y="-206.0662" font-family="Times,serif" font-size="14.00" fill="#000000">17</text>
</g>
</g>
</svg>
